
<svg width="1000" height="1000" viewBox="0 0 1000 1000" xmlns="http://www.w3.org/2000/svg">
  <defs>
    <linearGradient id="grad1" x1="0%" y1="0%" x2="100%" y2="100%">
      <stop offset="0%" style="stop-color:#7B61FF;stop-opacity:0.3" />
      <stop offset="100%" style="stop-color:#00FFD1;stop-opacity:0.3" />
    </linearGradient>
  </defs>
  
  <rect width="1000" height="1000" fill="#0A1128" />
  
  <!-- Grid lines -->
  <g stroke="url(#grad1)" stroke-width="0.5" opacity="0.2">
    <line x1="0" y1="100" x2="1000" y2="100" />
    <line x1="0" y1="200" x2="1000" y2="200" />
    <line x1="0" y1="300" x2="1000" y2="300" />
    <line x1="0" y1="400" x2="1000" y2="400" />
    <line x1="0" y1="500" x2="1000" y2="500" />
    <line x1="0" y1="600" x2="1000" y2="600" />
    <line x1="0" y1="700" x2="1000" y2="700" />
    <line x1="0" y1="800" x2="1000" y2="800" />
    <line x1="0" y1="900" x2="1000" y2="900" />
    
    <line x1="100" y1="0" x2="100" y2="1000" />
    <line x1="200" y1="0" x2="200" y2="1000" />
    <line x1="300" y1="0" x2="300" y2="1000" />
    <line x1="400" y1="0" x2="400" y2="1000" />
    <line x1="500" y1="0" x2="500" y2="1000" />
    <line x1="600" y1="0" x2="600" y2="1000" />
    <line x1="700" y1="0" x2="700" y2="1000" />
    <line x1="800" y1="0" x2="800" y2="1000" />
    <line x1="900" y1="0" x2="900" y2="1000" />
  </g>
  
  <!-- Connection nodes and lines -->
  <g>
    <circle cx="200" cy="300" r="4" fill="#7B61FF" opacity="0.8" />
    <circle cx="400" cy="200" r="3" fill="#00FFD1" opacity="0.8" />
    <circle cx="600" cy="400" r="5" fill="#7B61FF" opacity="0.8" />
    <circle cx="800" cy="300" r="4" fill="#00FFD1" opacity="0.8" />
    <circle cx="300" cy="600" r="5" fill="#7B61FF" opacity="0.8" />
    <circle cx="500" cy="700" r="3" fill="#00FFD1" opacity="0.8" />
    <circle cx="700" cy="600" r="4" fill="#7B61FF" opacity="0.8" />
    <circle cx="500" cy="300" r="6" fill="#00FFD1" opacity="0.8" />
    
    <line x1="200" y1="300" x2="400" y2="200" stroke="#7B61FF" stroke-width="1" opacity="0.5" />
    <line x1="400" y1="200" x2="600" y2="400" stroke="#00FFD1" stroke-width="1" opacity="0.5" />
    <line x1="600" y1="400" x2="800" y2="300" stroke="#7B61FF" stroke-width="1" opacity="0.5" />
    <line x1="300" y1="600" x2="500" y2="700" stroke="#00FFD1" stroke-width="1" opacity="0.5" />
    <line x1="500" y1="700" x2="700" y2="600" stroke="#7B61FF" stroke-width="1" opacity="0.5" />
    <line x1="500" y1="300" x2="600" y2="400" stroke="#00FFD1" stroke-width="1" opacity="0.5" />
    <line x1="500" y1="300" x2="400" y2="200" stroke="#7B61FF" stroke-width="1" opacity="0.5" />
    <line x1="500" y1="300" x2="300" y2="600" stroke="#00FFD1" stroke-width="1" opacity="0.5" />
  </g>
</svg>
